<?xml version="1.0" encoding="utf-8"?>
<!-- Generator: Adobe Illustrator 26.3.1, SVG Export Plug-In . SVG Version: 6.00 Build 0)  -->
<svg version="1.1" id="Calque_1" xmlns="http://www.w3.org/2000/svg" xmlns:xlink="http://www.w3.org/1999/xlink" x="0px" y="0px"
	 viewBox="0 0 65.5 34.4" style="enable-background:new 0 0 65.5 34.4;" xml:space="preserve">
<style type="text/css">
	.st0{fill:#FFFFFF;}
</style>
<g id="Breezy">
	<path class="st0" d="M49.5,34.4c-2.8,0-5.1-2.3-5.1-5.1c0-0.7,0.1-1.3,0.4-1.9H15.3c-0.9,0-1.6-0.7-1.6-1.6s0.7-1.6,1.6-1.6h34.1
		c0,0,0,0,0.1,0c0,0,0,0,0.1,0c2.8,0,5.1,2.3,5.1,5.1C54.7,32.1,52.4,34.4,49.5,34.4z"/>
	<path class="st0" d="M60.2,25.5c-2.8,0-5.1-2.3-5.1-5.1c0-0.7,0.1-1.3,0.4-1.9H1.6c-0.9,0-1.6-0.7-1.6-1.6s0.7-1.6,1.6-1.6h58.6
		c0,0,0,0,0.1,0c0,0,0,0,0.1,0c2.8,0,5.1,2.3,5.1,5.1C65.3,23.2,63,25.5,60.2,25.5z"/>
	<path class="st0" d="M49.5,0c-2.8,0-5.1,2.3-5.1,5.1c0,0.7,0.1,1.3,0.4,1.9H26c-0.9,0-1.6,0.7-1.6,1.6s0.7,1.6,1.6,1.6h23.4
		c0,0,0,0,0.1,0c0,0,0,0,0.1,0c2.8,0,5.1-2.3,5.1-5.1C54.7,2.3,52.4,0,49.5,0z"/>
</g>
</svg>
